<?xml version="1.0" encoding="UTF-8"?>
<svg id="Layer_2" data-name="Layer 2" xmlns="http://www.w3.org/2000/svg" viewBox="0 0 847.68 833.47">
  <defs>
    <style>
      .cls-1 {
        fill: #b51f67;
        stroke-width: 0px;
      }

      .cls-2 {
        fill: none;
        stroke: #b51f67;
        stroke-linecap: round;
        stroke-miterlimit: 10;
        stroke-width: 75.13px;
      }
    </style>
  </defs>
  <g id="Layer_1-2" data-name="Layer 1">
    <g>
      <path class="cls-1" d="M649.78,345.67c-49.73-131.56-211.17-72.54-226.1-6.84-20.53-70.02-178.01-122.26-226.07,6.93-53.51,143.88,207.4,273.01,226.07,294.17,18.64-16.81,279.58-152.72,226.09-294.27Z"/>
      <g>
        <path class="cls-1" d="M204.12,148.02l-41.72-59.19,22.77-16.05c5.14-3.62,10.09-6.36,14.84-8.2,4.75-1.85,9.23-2.26,13.44-1.25,4.21,1.01,8.04,3.97,11.49,8.88,1.58,2.25,2.74,4.77,3.47,7.56.73,2.8.73,5.83-.02,9.1-.75,3.27-2.66,6.74-5.73,10.4l33.99,11.72-16.22,11.43-31.78-11.03-6.29,4.43,15.74,22.33-14,9.87ZM194.14,104.12l9.22-6.49c3.31-2.33,5.77-4.71,7.38-7.12,1.61-2.42,1.46-4.98-.46-7.7-1.96-2.78-4.34-3.81-7.16-3.11-2.82.71-5.88,2.22-9.19,4.55l-9.22,6.49,9.43,13.38Z"/>
        <path class="cls-1" d="M288.43,98.38c-5.29,2.35-10.42,3.38-15.41,3.1-4.99-.28-9.48-1.86-13.49-4.74-4.01-2.89-7.22-7.04-9.62-12.45-2.32-5.22-3.12-10.28-2.41-15.18.71-4.9,2.59-9.29,5.65-13.18,3.06-3.89,6.96-6.89,11.72-9,5.42-2.4,10.62-3.19,15.61-2.37,4.99.83,9.47,3.03,13.43,6.61,3.96,3.58,7.07,8.35,9.32,14.31l-36.36,16.14c1.79,3.32,4.2,5.33,7.25,6.04,3.04.71,5.95.44,8.72-.79,2.31-1.03,4.16-2.26,5.53-3.7,1.38-1.44,2.29-2.89,2.75-4.36l13.92-.96c-.9,4.91-2.89,9.11-5.96,12.61-3.07,3.5-6.62,6.14-10.65,7.93ZM262.92,72.71l22.39-9.94c-1.47-3.14-3.63-5.05-6.46-5.73-2.83-.68-5.7-.37-8.61.92-2.84,1.26-5.03,3.14-6.57,5.64-1.54,2.5-1.79,5.54-.76,9.11Z"/>
        <path class="cls-1" d="M324.13,83.56l-10.87-39.73-8.57,2.35-3.32-12.13,8.57-2.35-2.32-8.47c-1.12-4.11-1.31-7.51-.54-10.19.76-2.68,2.49-4.88,5.17-6.58,2.68-1.71,6.35-3.2,11.03-4.48l7.21-1.97,3.43,12.55-4.39,1.2c-2.79.76-4.56,1.55-5.31,2.35-.75.81-.85,2.22-.3,4.24l1.92,7.01,11.29-3.09,3.32,12.13-11.29,3.09,10.87,39.73-15.89,4.35Z"/>
        <path class="cls-1" d="M377.37,73.23c-4.74.55-8.56.11-11.45-1.33-2.9-1.44-5.1-3.79-6.61-7.03-1.51-3.24-2.54-7.27-3.11-12.08l-3.76-32.09,16.37-1.92,3.49,29.82c.57,4.88,1.69,8.04,3.35,9.49,1.66,1.44,3.82,2.01,6.47,1.7,3.23-.38,5.45-1.73,6.67-4.06,1.22-2.33,1.54-5.96.96-10.92l-3.29-28.1,16.47-1.93,6.25,53.4-14.21,1.66-3.14-7.27c-1.27,2.84-2.98,5.21-5.12,7.09-2.14,1.89-5.26,3.07-9.35,3.55Z"/>
        <path class="cls-1" d="M445.04,91.53c-2.96-.2-5.92-.79-8.9-1.75-2.98-.96-5.7-2.47-8.17-4.52-2.47-2.05-4.42-4.76-5.86-8.11l13.74-3.95c.88,2.02,2.23,3.45,4.05,4.3,1.83.85,3.67,1.34,5.55,1.47,3.46.24,6.29-.38,8.49-1.86,2.2-1.48,3.42-3.99,3.67-7.52l.66-9.63c-2.51,2.73-5.3,4.67-8.39,5.84-3.09,1.17-6.14,1.64-9.17,1.44-3.89-.27-7.54-1.56-10.93-3.9-3.39-2.33-6.07-5.52-8.04-9.57-1.97-4.05-2.77-8.77-2.4-14.18.43-6.27,1.9-11.33,4.41-15.18,2.51-3.85,5.56-6.63,9.15-8.34,3.59-1.71,7.23-2.44,10.91-2.19,3.39.23,6.6,1.21,9.63,2.94s5.46,4.14,7.27,7.23l2.67-7.21,14.17.97-3.39,49.64c-.61,8.94-3.48,15.34-8.59,19.19-5.12,3.85-11.97,5.48-20.54,4.9ZM447.44,54.86c2.16.15,4.15-.13,5.98-.84,1.82-.71,3.34-2.03,4.56-3.98,1.22-1.94,1.95-4.65,2.18-8.11.36-5.26-.56-8.98-2.77-11.16-2.21-2.18-4.9-3.38-8.07-3.59-3.24-.22-6.11.67-8.6,2.67-2.49,2-3.9,5.35-4.22,10.03-.33,4.76.6,8.39,2.79,10.89,2.18,2.5,4.9,3.87,8.14,4.09Z"/>
        <path class="cls-1" d="M480.28,71.48l46.09-62.23,18.15,5.13,6.7,77.14-17.94-5.07-.67-13.59-26.71-7.55-7.68,11.23-17.94-5.07ZM514.16,53.24l17.74,5.01-1.48-29.03-16.25,24.02Z"/>
        <path class="cls-1" d="M562.84,98.68l17.46-37.31-9.23-4.32,5.33-11.39,24.25,11.35-22.78,48.7-15.02-7.03ZM596.96,45.46c-2.42-1.13-4.1-2.97-5.02-5.52-.92-2.55-.82-5.03.32-7.45,1.16-2.49,3.01-4.18,5.54-5.07,2.53-.89,5.01-.77,7.43.36,2.49,1.16,4.18,3,5.09,5.49.91,2.5.78,4.99-.39,7.48-1.13,2.42-2.96,4.1-5.47,5.04-2.51.94-5.01.83-7.5-.34Z"/>
        <path class="cls-1" d="M604.07,122.41c-3.86-2.55-6.64-5.78-8.36-9.68-1.71-3.9-2.23-8.2-1.54-12.91.68-4.7,2.63-9.5,5.86-14.38,3.23-4.88,6.83-8.5,10.81-10.85,3.98-2.35,8.08-3.48,12.3-3.38,4.22.1,8.26,1.43,12.12,3.98,2.47,1.63,4.6,3.92,6.37,6.87,1.78,2.95,2.57,6.14,2.39,9.57l14.34-21.71,13.75,9.08-28.32,42.88c-1.47,2.23-3.12,4.95-4.94,8.17-1.82,3.21-3.52,6.68-5.11,10.39l-13.12-8.66,2.19-7.26c-3.58,1.36-6.98,1.75-10.2,1.19-3.22-.57-6.07-1.67-8.54-3.3ZM615.55,114.67c2.65,1.75,5.62,2.28,8.89,1.59,3.27-.7,6.45-3.36,9.51-8.01,3.03-4.58,4.23-8.53,3.6-11.85-.63-3.31-2.27-5.85-4.92-7.6-2.71-1.79-5.77-2.25-9.16-1.37-3.39.88-6.45,3.37-9.15,7.46-2.75,4.16-3.91,8.05-3.48,11.67.42,3.62,2,6.32,4.71,8.11Z"/>
      </g>
      <path class="cls-2" d="M728.19,171.74c20.64,26.37,37.94,55.5,51.23,86.74,19.76,46.43,30.7,97.51,30.7,151.16,0,213.33-172.94,386.27-386.27,386.27S37.56,622.96,37.56,409.63c0-52.99,10.67-103.49,29.98-149.46,11.24-26.75,25.4-51.97,42.08-75.26"/>
    </g>
  </g>
</svg>